<mxfile host="app.diagrams.net" modified="2024-05-26T08:31:25.288Z" agent="Mozilla/5.0 (Macintosh; Intel Mac OS X 10_15_7) AppleWebKit/537.36 (KHTML, like Gecko) Chrome/124.0.0.0 Safari/537.36" version="24.4.8" etag="KgS33c0PwN1-Uv8iLk05" type="github">
  <diagram name="Page-1" id="gS9dtMeuSsHSfZmD4sqO">
    <mxGraphModel>
      <root>
        <mxCell id="0" />
        <mxCell id="1" parent="0" />
      </root>
    </mxGraphModel>
  </diagram>
</mxfile>
